<mxfile host="app.diagrams.net" agent="Mozilla/5.0 (Windows NT 10.0; Win64; x64) AppleWebKit/537.36 (KHTML, like Gecko) Chrome/131.0.0.0 Safari/537.36" version="25.0.3">
  <diagram name="Page-1" id="NbjemXNcLE71AyZS94My">
    <mxGraphModel dx="1167" dy="580" grid="1" gridSize="10" guides="1" tooltips="1" connect="1" arrows="1" fold="1" page="1" pageScale="1" pageWidth="850" pageHeight="1100" math="0" shadow="0">
      <root>
        <mxCell id="0" />
        <mxCell id="1" parent="0" />
        <mxCell id="eNyri42b_4KVEkE6_nDj-6" style="edgeStyle=orthogonalEdgeStyle;rounded=0;orthogonalLoop=1;jettySize=auto;html=1;exitX=0.5;exitY=1;exitDx=0;exitDy=0;exitPerimeter=0;entryX=0.5;entryY=0;entryDx=0;entryDy=0;" edge="1" parent="1" source="eNyri42b_4KVEkE6_nDj-1" target="eNyri42b_4KVEkE6_nDj-2">
          <mxGeometry relative="1" as="geometry" />
        </mxCell>
        <mxCell id="eNyri42b_4KVEkE6_nDj-1" value="&lt;i&gt;START&lt;/i&gt;" style="strokeWidth=2;html=1;shape=mxgraph.flowchart.terminator;whiteSpace=wrap;" vertex="1" parent="1">
          <mxGeometry x="210" y="40" width="100" height="60" as="geometry" />
        </mxCell>
        <mxCell id="eNyri42b_4KVEkE6_nDj-8" style="edgeStyle=orthogonalEdgeStyle;rounded=0;orthogonalLoop=1;jettySize=auto;html=1;exitX=0.5;exitY=1;exitDx=0;exitDy=0;entryX=0.5;entryY=0;entryDx=0;entryDy=0;" edge="1" parent="1" source="eNyri42b_4KVEkE6_nDj-2" target="eNyri42b_4KVEkE6_nDj-7">
          <mxGeometry relative="1" as="geometry" />
        </mxCell>
        <mxCell id="eNyri42b_4KVEkE6_nDj-2" value="&lt;i&gt;User&lt;/i&gt;&lt;div&gt;&lt;i&gt;Input&lt;/i&gt;&lt;/div&gt;" style="shape=parallelogram;html=1;strokeWidth=2;perimeter=parallelogramPerimeter;whiteSpace=wrap;rounded=1;arcSize=12;size=0.23;" vertex="1" parent="1">
          <mxGeometry x="210" y="150" width="100" height="60" as="geometry" />
        </mxCell>
        <mxCell id="eNyri42b_4KVEkE6_nDj-3" value="Hasil&lt;div&gt;Klasifikasi&lt;/div&gt;" style="shape=parallelogram;html=1;strokeWidth=2;perimeter=parallelogramPerimeter;whiteSpace=wrap;rounded=1;arcSize=12;size=0.23;" vertex="1" parent="1">
          <mxGeometry x="355" y="290" width="100" height="60" as="geometry" />
        </mxCell>
        <mxCell id="eNyri42b_4KVEkE6_nDj-4" value="&lt;i&gt;END&lt;/i&gt;" style="strokeWidth=2;html=1;shape=mxgraph.flowchart.terminator;whiteSpace=wrap;" vertex="1" parent="1">
          <mxGeometry x="355" y="380" width="100" height="60" as="geometry" />
        </mxCell>
        <mxCell id="eNyri42b_4KVEkE6_nDj-5" style="edgeStyle=orthogonalEdgeStyle;rounded=0;orthogonalLoop=1;jettySize=auto;html=1;exitX=0.5;exitY=1;exitDx=0;exitDy=0;entryX=0.5;entryY=0;entryDx=0;entryDy=0;entryPerimeter=0;" edge="1" parent="1" source="eNyri42b_4KVEkE6_nDj-3" target="eNyri42b_4KVEkE6_nDj-4">
          <mxGeometry relative="1" as="geometry" />
        </mxCell>
        <mxCell id="eNyri42b_4KVEkE6_nDj-7" value="&lt;i&gt;Preprocessing&lt;/i&gt;" style="rounded=1;whiteSpace=wrap;html=1;absoluteArcSize=1;arcSize=14;strokeWidth=2;" vertex="1" parent="1">
          <mxGeometry x="210" y="270" width="100" height="50" as="geometry" />
        </mxCell>
        <mxCell id="eNyri42b_4KVEkE6_nDj-9" value="A" style="strokeWidth=2;html=1;shape=mxgraph.flowchart.start_2;whiteSpace=wrap;" vertex="1" parent="1">
          <mxGeometry x="225" y="370" width="70" height="70" as="geometry" />
        </mxCell>
        <mxCell id="eNyri42b_4KVEkE6_nDj-10" style="edgeStyle=orthogonalEdgeStyle;rounded=0;orthogonalLoop=1;jettySize=auto;html=1;exitX=0.5;exitY=1;exitDx=0;exitDy=0;entryX=0.5;entryY=0;entryDx=0;entryDy=0;entryPerimeter=0;" edge="1" parent="1" source="eNyri42b_4KVEkE6_nDj-7" target="eNyri42b_4KVEkE6_nDj-9">
          <mxGeometry relative="1" as="geometry" />
        </mxCell>
        <mxCell id="eNyri42b_4KVEkE6_nDj-13" style="edgeStyle=orthogonalEdgeStyle;rounded=0;orthogonalLoop=1;jettySize=auto;html=1;exitX=0.5;exitY=1;exitDx=0;exitDy=0;exitPerimeter=0;entryX=0.5;entryY=0;entryDx=0;entryDy=0;" edge="1" parent="1" source="eNyri42b_4KVEkE6_nDj-11" target="eNyri42b_4KVEkE6_nDj-12">
          <mxGeometry relative="1" as="geometry" />
        </mxCell>
        <mxCell id="eNyri42b_4KVEkE6_nDj-11" value="A" style="strokeWidth=2;html=1;shape=mxgraph.flowchart.start_2;whiteSpace=wrap;" vertex="1" parent="1">
          <mxGeometry x="370" y="35" width="70" height="70" as="geometry" />
        </mxCell>
        <mxCell id="eNyri42b_4KVEkE6_nDj-16" style="edgeStyle=orthogonalEdgeStyle;rounded=0;orthogonalLoop=1;jettySize=auto;html=1;exitX=0.5;exitY=1;exitDx=0;exitDy=0;entryX=0.5;entryY=0;entryDx=0;entryDy=0;" edge="1" parent="1" source="eNyri42b_4KVEkE6_nDj-12" target="eNyri42b_4KVEkE6_nDj-15">
          <mxGeometry relative="1" as="geometry" />
        </mxCell>
        <mxCell id="eNyri42b_4KVEkE6_nDj-12" value="Ekstraksi Fitur" style="rounded=1;whiteSpace=wrap;html=1;absoluteArcSize=1;arcSize=14;strokeWidth=2;" vertex="1" parent="1">
          <mxGeometry x="355" y="135" width="100" height="50" as="geometry" />
        </mxCell>
        <mxCell id="eNyri42b_4KVEkE6_nDj-17" style="edgeStyle=orthogonalEdgeStyle;rounded=0;orthogonalLoop=1;jettySize=auto;html=1;exitX=0.5;exitY=1;exitDx=0;exitDy=0;entryX=0.5;entryY=0;entryDx=0;entryDy=0;" edge="1" parent="1" source="eNyri42b_4KVEkE6_nDj-15" target="eNyri42b_4KVEkE6_nDj-3">
          <mxGeometry relative="1" as="geometry" />
        </mxCell>
        <mxCell id="eNyri42b_4KVEkE6_nDj-15" value="Klasifikasi" style="rounded=1;whiteSpace=wrap;html=1;absoluteArcSize=1;arcSize=14;strokeWidth=2;" vertex="1" parent="1">
          <mxGeometry x="355" y="210" width="100" height="50" as="geometry" />
        </mxCell>
      </root>
    </mxGraphModel>
  </diagram>
</mxfile>
